<?xml version="1.0" encoding="utf-8"?>
<!-- Generator: Adobe Illustrator 16.0.0, SVG Export Plug-In . SVG Version: 6.00 Build 0)  -->
<!DOCTYPE svg PUBLIC "-//W3C//DTD SVG 1.1//EN" "http://www.w3.org/Graphics/SVG/1.1/DTD/svg11.dtd">
<svg version="1.1"
	 id="Layer_1" xmlns:dc="http://purl.org/dc/elements/1.1/" xmlns:rdf="http://www.w3.org/1999/02/22-rdf-syntax-ns#" xmlns:cc="http://creativecommons.org/ns#"
	 xmlns="http://www.w3.org/2000/svg" xmlns:xlink="http://www.w3.org/1999/xlink" x="0px" y="0px" width="1000px" height="1000px"
	 viewBox="-360.664 -319.781 1000 1000" enable-background="new -360.664 -319.781 1000 1000" xml:space="preserve">
<g>
	<path d="M-246.441,578.825c2.25,8.769,9.842,17.731,20.256,19.976h31.478l1.606,0.636v79.438h19.659v-79.438l1.787-0.636h31.505
		c10.534-2.712,17.961-11.207,20.17-19.976v-0.191h-126.461V578.825"/>
	<path d="M-51.882,679.096h74.784c10.404-2.065,18.138-11.234,20.306-20.108H-72.187C-70.035,667.865-62.188,677.031-51.882,679.096
		"/>
	<path d="M-51.882,638.35h74.784c10.404-2.053,18.138-11.221,20.306-20.105H-72.187C-70.035,627.131-62.188,636.297-51.882,638.35"
		/>
	<path d="M-51.882,598.698h74.784c10.404-2.073,18.138-11.237,20.306-20.116H-72.187C-70.035,587.461-62.188,596.625-51.882,598.698
		"/>
	<path d="M118.677,598.506h69.09c10.415-3.025,19.161-10.961,21.295-19.756H99.309v59.291h89.828v20.806l-70.46,0.055
		c-11.043,3.079-20.406,10.493-25.078,20.286l5.71-0.105h109.128v-60.754h-89.76V598.506"/>
	<path d="M353.796,679.11c9.809-4.158,15.087-11.354,17.109-19.771h-87.263l0.055-80.619l-19.56,0.057V679.11H353.796"/>
	<path d="M430.005,598.777h74.811c10.392-2.065,18.118-11.233,20.298-20.105h-115.4
		C411.867,587.545,419.709,596.711,430.005,598.777"/>
	<path d="M412.719,618.401v60.668h19.454v-40.392h70.813v40.392h19.44v-60.563L412.719,618.401"/>
</g>
<g>
	<path d="M139.374,380.348l98.224-552.406c93.621,0,123.152,10.267,127.419,52.172c0,0,62.804-23.417,94.481-70.98
		c-123.612-57.277-247.813-59.862-247.813-59.862l-72.473,88.273l0.162-0.011l-72.473-88.276c0,0-124.201,2.588-247.797,59.865
		c31.65,47.563,94.479,70.98,94.479,70.98c4.291-41.909,33.784-52.175,126.778-52.24L139.374,380.348"/>
	<path d="M139.336-276.224c99.922-0.763,214.292,15.458,331.377,66.489c15.646-28.166,19.67-40.614,19.67-40.614
		c-127.989-50.637-247.849-67.965-351.061-68.4c-103.206,0.436-223.06,17.767-351.033,68.4c0,0,5.708,15.333,19.659,40.614
		c117.058-51.031,231.45-67.251,331.374-66.489H139.336"/>
</g>
</svg>
