<?xml version="1.0" encoding="utf-8"?>
<!-- Generator: Adobe Illustrator 16.0.0, SVG Export Plug-In . SVG Version: 6.00 Build 0)  -->
<!DOCTYPE svg PUBLIC "-//W3C//DTD SVG 1.1//EN" "http://www.w3.org/Graphics/SVG/1.1/DTD/svg11.dtd">
<svg version="1.1" id="Layer_1" xmlns="http://www.w3.org/2000/svg" xmlns:xlink="http://www.w3.org/1999/xlink" x="0px" y="0px"
	 width="1000px" height="1000px" viewBox="-134.282 -431.641 1000 1000" enable-background="new -134.282 -431.641 1000 1000"
	 xml:space="preserve">
<path d="M477.504,4.334v124.853h35.234V4.334H477.504z M200.286,4.121v124.96h35.552V32.055l27.722,0.106
	c9.099,0,15.447,2.222,19.786,6.877c5.607,5.925,7.83,15.554,7.83,33.013v57.03h34.494V60.094c0-49.308-31.424-55.973-62.109-55.973
	H200.286z M534.326,4.334v124.853h57.136c30.473,0,40.42-5.078,51.105-16.4c7.618-7.935,12.486-25.5,12.486-44.65
	c0-17.565-4.129-33.225-11.428-42.959c-12.91-17.458-31.742-20.843-59.888-20.843H534.326z M569.242,31.42h15.13
	c22.009,0,36.188,9.84,36.188,35.446c0,25.606-14.18,35.551-36.188,35.551h-15.13V31.42z M426.716,4.334l-29.413,98.931
	L369.158,4.334h-38.091l40.206,124.853h50.789l40.63-124.853H426.716z M671.559,129.187h35.234V4.334h-35.234V129.187z
	 M770.382,4.334l-49.2,124.748h34.705l7.832-22.113h58.192l7.406,22.008h37.775L817.467,4.334H770.382z M793.24,27.082
	l21.372,58.408H771.23L793.24,27.082z"/>
<path d="M-27.097,25.072V7.93c1.693-0.105,3.386-0.211,5.079-0.211c46.979-1.481,77.77,40.419,77.77,40.419
	S22.527,94.271-13.13,94.271c-4.762,0-9.417-0.74-13.861-2.221V39.99C-8.686,42.213-4.983,50.254,5.916,68.559l24.442-20.527
	c0,0-17.882-23.383-47.932-23.383C-20.749,24.543-23.923,24.755-27.097,25.072 M-27.097-31.641v25.605l5.079-0.318
	c65.285-2.222,107.925,53.54,107.925,53.54S37.023,106.65-13.871,106.65c-4.444,0-8.782-0.422-13.12-1.162v15.871
	c3.598,0.422,7.301,0.74,10.898,0.74c47.403,0,81.685-24.231,114.909-52.8c5.501,4.444,28.04,15.131,32.695,19.787
	c-31.531,26.452-105.068,47.72-146.756,47.72c-4.021,0-7.83-0.212-11.64-0.636v22.326h180.087V-31.641H-27.097z M-27.097,92.05
	v13.543C-70.902,97.762-83.07,52.158-83.07,52.158s21.056-23.277,55.973-27.086v14.813h-0.105
	c-18.306-2.222-32.696,14.919-32.696,14.919S-51.75,83.689-27.097,92.05 M-104.867,50.254c0,0,25.924-38.302,77.875-42.324V-6.036
	c-57.56,4.655-107.29,53.328-107.29,53.328s28.145,81.473,107.184,88.878v-14.812C-85.08,114.162-104.867,50.254-104.867,50.254z"/>
</svg>
