<?xml version="1.0" encoding="utf-8"?>
<!-- Generator: Adobe Illustrator 16.0.0, SVG Export Plug-In . SVG Version: 6.00 Build 0)  -->
<!DOCTYPE svg PUBLIC "-//W3C//DTD SVG 1.1//EN" "http://www.w3.org/Graphics/SVG/1.1/DTD/svg11.dtd">
<svg version="1.1" id="Layer_1" xmlns="http://www.w3.org/2000/svg" xmlns:xlink="http://www.w3.org/1999/xlink" x="0px" y="0px"
	 width="1000px" height="1000px" viewBox="-436 -436 1000 1000" enable-background="new -436 -436 1000 1000" xml:space="preserve">
<path d="M-19.996,0.115v127.769h-22.183V27.62h-0.297l-39.632,100.264h-14.787l-40.52-100.264h-0.297v100.264h-20.408V0.115h31.945
	l36.673,94.646h0.591l38.745-94.646H-19.996z M-1.659,9.874c0-3.55,1.181-6.506,3.843-8.871s5.622-3.55,9.168-3.55
	c3.847,0,7.1,1.185,9.465,3.55c2.366,2.365,3.848,5.321,3.848,8.871s-1.185,6.506-3.848,8.875c-2.662,2.365-5.618,3.546-9.465,3.546
	c-3.844,0-6.803-1.181-9.168-3.546C-0.181,16.086-1.659,13.127-1.659,9.874z M22.295,36.198v91.686H0.706V36.198H22.295z
	 M87.661,112.206c3.253,0,6.803-0.587,10.65-2.362c3.839-1.477,7.39-3.549,10.649-5.911v20.112
	c-3.55,2.064-7.404,3.549-11.838,4.434c-4.434,0.883-9.164,1.477-14.489,1.477c-13.606,0-24.549-4.144-32.83-12.721
	c-8.578-8.578-12.718-19.518-12.718-32.529c0-14.794,4.438-26.918,13.011-36.379c8.578-9.465,20.706-14.2,36.68-14.2
	c4.137,0,8.273,0.594,12.128,1.481c4.137,0.888,7.39,2.365,9.751,3.546v20.706c-3.245-2.366-6.795-4.438-10.056-5.619
	c-3.55-1.185-7.1-2.072-10.642-2.072c-8.578,0-15.381,2.663-20.706,8.281c-5.325,5.623-7.69,13.011-7.69,22.48
	c0,9.165,2.663,16.563,7.69,21.59C72.281,109.547,79.084,112.206,87.661,112.206z M170.179,34.72c1.775,0,3.253,0,4.731,0.293
	c1.485,0.297,2.658,0.594,3.55,0.888v21.886c-1.181-0.888-2.659-1.775-5.028-2.365s-4.73-1.181-7.983-1.181
	c-5.325,0-9.759,2.366-13.309,6.803c-3.55,4.434-5.622,11.236-5.622,20.706v46.134h-21.589V36.198h21.589v14.493h0.297
	c2.064-5.028,5.028-8.875,8.875-11.831C159.826,36.198,164.557,34.72,170.179,34.72z M179.641,83.517
	c0-15.083,4.441-27.208,12.722-36.079c8.578-8.875,20.409-13.312,35.492-13.312c14.192,0,25.437,4.14,33.42,12.718
	c7.983,8.578,12.128,20.111,12.128,34.602c0,14.793-4.434,26.624-12.723,35.499c-8.577,8.867-20.111,13.301-34.897,13.301
	c-14.192,0-25.437-4.136-33.717-12.417C183.785,109.25,179.641,97.717,179.641,83.517z M202.121,82.633
	c0,9.462,2.072,16.859,6.506,21.887c4.441,5.027,10.649,7.687,18.633,7.687c7.688,0,13.903-2.362,18.047-7.687
	c4.137-5.027,6.209-12.425,6.209-22.48c0-9.759-2.072-17.152-6.209-22.477c-4.144-5.028-10.359-7.69-17.749-7.69
	c-7.983,0-13.896,2.663-18.337,7.988C204.193,65.478,202.121,72.875,202.121,82.633z M305.642,60.45
	c0,2.959,0.884,5.623,2.956,7.393c2.071,1.778,6.216,3.851,13.011,6.51c8.578,3.55,14.794,7.397,18.04,11.533
	c3.55,4.441,5.332,9.47,5.332,15.671c0,8.577-3.261,15.388-10.056,20.705c-6.514,5.332-15.678,7.693-26.922,7.693
	c-3.839,0-7.983-0.594-12.714-1.477c-4.731-0.885-8.578-2.072-11.831-3.551v-21.3c3.839,2.667,8.28,5.028,12.722,6.506
	c4.434,1.485,8.57,2.369,12.418,2.369c4.73,0,8.577-0.587,10.649-2.064c2.361-1.478,3.55-3.55,3.55-6.811
	c0-2.956-1.188-5.317-3.55-7.687c-2.369-2.064-7.1-4.441-13.605-7.1c-7.983-3.253-13.606-7.092-16.866-11.236
	c-3.245-4.145-5.028-9.462-5.028-15.971c0-8.281,3.261-15.083,9.767-20.409c6.506-5.325,15.084-7.987,25.437-7.987
	c3.253,0,6.803,0.297,10.642,1.185c3.848,0.888,7.397,1.775,10.057,2.663v20.999c-2.956-1.775-6.209-3.55-10.057-5.028
	c-3.839-1.478-7.686-2.072-11.236-2.072c-4.137,0-7.396,0.887-9.461,2.369C306.822,55.422,305.642,57.494,305.642,60.45z
	 M354.145,83.517c0-15.083,4.441-27.208,12.715-36.079c8.578-8.875,20.416-13.312,35.5-13.312c14.191,0,25.428,4.14,33.412,12.718
	c7.991,8.578,12.127,20.111,12.127,34.602c0,14.793-4.434,26.624-12.714,35.499c-8.577,8.867-20.111,13.301-34.897,13.301
	c-14.2,0-25.444-4.136-33.717-12.417C358.586,109.25,354.145,97.717,354.145,83.517z M376.625,82.633
	c0,9.462,2.072,16.859,6.506,21.887s10.65,7.687,18.634,7.687c7.687,0,13.896-2.362,18.039-7.687
	c4.145-5.027,6.217-12.425,6.217-22.48c0-9.759-2.072-17.152-6.217-22.477c-4.144-5.028-10.353-7.69-17.749-7.69
	c-7.984,0-13.896,2.663-18.329,7.988C378.987,65.478,376.625,72.875,376.625,82.633z M519.774,53.944h-32.239v73.94h-21.887v-73.94
	h-15.381V36.198h15.381V23.479c0-9.465,3.253-17.449,9.462-23.661c6.216-6.212,14.2-9.168,23.958-9.168
	c2.659,0,5.028,0.297,7.101,0.297c2.064,0,3.847,0.59,5.325,1.181v18.634c-0.595-0.293-2.072-0.888-3.848-1.478
	s-3.847-0.888-6.209-0.888c-4.434,0-7.983,1.478-10.353,4.141c-2.369,2.662-3.55,7.1-3.55,12.421v10.943h32.239V15.199l21.589-6.505
	v27.208h21.887v17.746h-21.887v42.881c0,5.622,1.182,9.469,2.956,11.839c2.072,2.361,5.325,3.549,9.759,3.549
	c1.188,0,2.666-0.297,4.441-0.891c1.774-0.587,3.253-1.182,4.434-2.064v17.742c-1.479,0.891-3.543,1.478-6.803,2.064
	c-3.253,0.594-6.209,0.891-9.462,0.891c-9.172,0-15.967-2.369-20.408-7.092c-4.441-4.738-6.803-12.128-6.803-21.895L519.774,53.944
	L519.774,53.944z"/>
<rect x="-435.25" y="-42.477" width="101.151" height="101.151"/>
<rect x="-323.453" y="-42.477" width="101.155" height="101.151"/>
<rect x="-435.25" y="69.324" width="101.151" height="101.151"/>
<rect x="-323.453" y="69.324" width="101.155" height="101.151"/>
</svg>
