<?xml version="1.0" encoding="utf-8"?>
<!-- Generator: Adobe Illustrator 16.0.0, SVG Export Plug-In . SVG Version: 6.00 Build 0)  -->
<!DOCTYPE svg PUBLIC "-//W3C//DTD SVG 1.1//EN" "http://www.w3.org/Graphics/SVG/1.1/DTD/svg11.dtd">
<svg version="1.1" id="Layer_1" xmlns="http://www.w3.org/2000/svg" xmlns:xlink="http://www.w3.org/1999/xlink" x="0px" y="0px"
	 width="1000px" height="1000px" viewBox="0 0 1000 1000" enable-background="new 0 0 1000 1000" xml:space="preserve">
<path fill-rule="evenodd" clip-rule="evenodd" d="M447.66,453.422c5.02-7.247,4.417-16.084,6.468-24.137
	c15.977-62.634,60.776-98.105,125.297-98.617c25.405-0.201,50.593,1.386,75.397,7.67c6.249,1.584,8.544,3.972,8.271,10.477
	c-0.519,12.297-0.082,24.629-0.218,36.926c-0.027,2.335,1.248,5.614-2.379,6.56c-3.36,0.857-4.381-1.769-5.428-4.282
	c-12.535-30.134-37.367-39.406-67.481-39.825c-31.117-0.455-54.938,12.499-70.077,39.624c-18.811,33.705-21.699,70.816-20.879,108.4
	c0.611,28.146,4.764,55.675,17.063,81.402c22.909,47.912,63.418,55.801,107.852,42.302c3.062-0.929,5.356-1.804,5.257-5.795
	c-0.893-36.507,2.241-73.146-1.849-109.546c-2.204-19.604-9.901-25.414-29.404-26.653c-3.07-0.181-8.563,2.787-8.81-3.282
	c-0.291-7.028,5.849-4.187,9.182-4.205c30.59-0.238,61.188-0.201,91.775-0.057c3.289,0.017,8.436-2.06,9.119,3.497
	c0.774,6.16-5.129,3.992-8.098,4.866c-8.773,2.571-14.384,7.759-15.633,16.925c-0.801,5.887-1.456,11.843-1.483,17.765
	c-0.137,34.706-0.027,69.393-0.109,104.098c-0.01,4.174,1.348,8.51-4.875,10.822c-42.184,15.76-85.762,21.299-129.577,11.697
	c-44.043-9.672-67.336-42.213-80.517-83.35c-3.58-11.167-3.471-23.229-8.863-33.869C447.66,499.698,447.66,476.562,447.66,453.422z"
	/>
<path fill-rule="evenodd" clip-rule="evenodd" d="M133.774,330.889c10.42,4.964,22.162,4.245,33.011,7.645
	c5.366,1.685,8.044,3.526,7.798,9.709c-0.5,12.66-0.137,25.351-0.183,38.039c-0.008,2.505,0.511,5.493-3.343,5.847
	c-2.923,0.276-3.844-1.766-4.354-4.032c-7.069-31.592-44.526-39.118-72.227-36.21c-9.656,1.009-19.084,3.152-27.792,7.814
	c-27.673,14.822-32.557,49.891-9.847,71.592c11.806,11.276,26.654,17.598,41.046,24.537c17.125,8.266,33.996,16.945,49.773,27.574
	c35.744,24.094,49.882,56.799,41.164,94.7c-7.906,34.416-36.4,57.699-77.556,64.118c-36.245,5.648-71.188,0.684-105.502-11.285
	c-4.346-1.519-6.896-3.187-6.787-8.443c0.319-15.285,0.063-30.588,0.164-45.883c0.019-2.34-1.128-5.576,2.669-6.314
	c3.48-0.674,5.075,1.112,6.568,4.348c19.921,42.966,57.269,58.928,102.552,44.033c38.313-12.6,49.435-55.514,21.934-85.244
	c-16.851-18.219-39.187-28.066-60.858-38.813c-17.408-8.636-34.469-17.802-48.561-31.445
	c-41.201-39.917-28.349-102.963,25.214-123.522c8.791-3.379,17.927-5.867,26.908-8.763
	C94.968,330.889,114.37,330.889,133.774,330.889z"/>
<path fill-rule="evenodd" clip-rule="evenodd" d="M994.571,627.204c-14.049,3.787-27.166-1.66-35.417-14.814
	c-4.975-7.943-8.182-16.706-11.225-25.506c-25.741-74.166-51.446-148.333-77.218-222.485c-9.199-26.453-9.3-26.142-37.021-26.395
	c-7.478-0.075-11.05,1.91-13.598,9.347c-16.099,46.802-32.722,93.403-49.281,140.044c-13.073,36.817-26.053,73.674-39.555,110.348
	c-5.372,14.592-12.413,28.293-30.404,30.844c-3.215,0.455-4.262,2.695-3.899,5.686c0.402,3.241,3.051,2.675,5.131,2.675
	c24.994,0.037,50,0.058,74.994-0.018c2.396,0,5.611,0.929,5.977-3.06c0.37-4.119-2.724-4.572-5.721-5.32
	c-20.597-5.119-24.241-10.84-18.475-31.537c4.383-15.758,9.985-31.152,14.701-46.82c1.631-5.412,4.918-6.32,9.939-6.286
	c31.345,0.167,62.688,0.219,94.024-0.034c5.896-0.058,8.519,1.893,10.175,7.523c4.757,16.05,10.531,31.807,15.159,47.877
	c5.392,18.766,0.311,26.033-19.165,29.113c-3.463,0.547-8.573-0.328-8.072,5.211c0.546,5.938,5.857,3.224,8.938,3.241
	c34.313,0.219,68.653,0.146,110.411,0.146C1002.448,638.583,1003.769,626.991,994.571,627.204z M869.481,521.043
	c-26.087-0.253-52.177-0.055-78.256-0.201c-2.605-0.018-7.935,1.915-5.712-4.481c14.967-43.011,30.014-85.989,45.037-128.986
	c0.8,0.089,1.593,0.198,2.387,0.29c14.063,41.959,28.02,83.933,42.293,125.797C877.416,519.876,875.596,521.077,869.481,521.043z"/>
<path fill-rule="evenodd" clip-rule="evenodd" d="M357.587,330.889c10.422,4.964,22.162,4.245,33.01,7.645
	c5.366,1.685,8.047,3.526,7.799,9.709c-0.5,12.66-0.138,25.351-0.184,38.039c-0.006,2.505,0.512,5.493-3.342,5.847
	c-2.922,0.276-3.842-1.766-4.354-4.032c-7.069-31.592-44.524-39.118-72.225-36.21c-9.657,1.009-19.086,3.152-27.794,7.814
	c-27.673,14.822-32.557,49.891-9.847,71.592c11.806,11.276,26.654,17.598,41.046,24.537c17.126,8.266,33.996,16.945,49.773,27.574
	c35.744,24.094,49.882,56.799,41.163,94.7c-7.903,34.416-36.397,57.699-77.554,64.118c-36.245,5.648-71.188,0.684-105.502-11.285
	c-4.345-1.519-6.896-3.187-6.787-8.443c0.319-15.285,0.063-30.588,0.164-45.883c0.019-2.34-1.129-5.576,2.669-6.314
	c3.48-0.674,5.075,1.112,6.568,4.348c19.921,42.966,57.269,58.928,102.552,44.033c38.313-12.6,49.437-55.514,21.934-85.244
	c-16.85-18.219-39.187-28.066-60.858-38.813c-17.408-8.636-34.469-17.802-48.561-31.445
	c-41.202-39.917-28.349-102.963,25.214-123.522c8.79-3.379,17.927-5.867,26.908-8.763
	C318.78,330.889,338.184,330.889,357.587,330.889z"/>
</svg>
