<?xml version="1.0" encoding="utf-8"?>
<!-- Generator: Adobe Illustrator 16.0.0, SVG Export Plug-In . SVG Version: 6.00 Build 0)  -->
<!DOCTYPE svg PUBLIC "-//W3C//DTD SVG 1.1//EN" "http://www.w3.org/Graphics/SVG/1.1/DTD/svg11.dtd">
<svg version="1.1"
	 id="Layer_1" xmlns:rdf="http://www.w3.org/1999/02/22-rdf-syntax-ns#" xmlns:cc="http://creativecommons.org/ns#"
	 xmlns="http://www.w3.org/2000/svg" xmlns:xlink="http://www.w3.org/1999/xlink" x="0px" y="0px" width="1000px" height="1000px"
	 viewBox="-26 -404.5 1000 1000" enable-background="new -26 -404.5 1000 1000" xml:space="preserve">
<desc>Logo of Meta Platforms -- Graphic created by Detmar Owen</desc>
<path id="Logo0" d="M6.764,127.631c0,11.582,2.542,20.475,5.865,25.855c4.356,7.046,10.854,10.031,17.479,10.031
	c8.544,0,16.361-2.12,31.424-22.953c12.067-16.699,26.287-40.139,35.854-54.832l16.203-24.895
	c11.255-17.289,24.283-36.509,39.219-49.536c12.194-10.633,25.349-16.54,38.587-16.54c22.226,0,43.396,12.88,59.599,37.036
	c17.732,26.456,26.34,59.778,26.34,94.167c0,20.442-4.029,35.463-10.886,47.33c-6.625,11.477-19.536,22.943-41.255,22.943v-32.721
	c18.597,0,23.239-17.09,23.239-36.646c0-27.869-6.498-58.797-20.813-80.896C217.46,30.3,204.295,20.722,189.812,20.722
	c-15.664,0-28.27,11.814-42.437,32.879c-7.531,11.192-15.264,24.832-23.945,40.222l-9.557,16.931
	c-19.199,34.04-24.061,41.793-33.661,54.588c-16.824,22.405-31.192,30.896-50.105,30.896c-22.437,0-36.624-9.715-45.411-24.355
	C-22.477,159.951-26,144.297-26,126.459L6.764,127.631z"/>
<path id="Logo1" d="M-0.167,34.107C14.854,10.954,36.531-5.238,61.395-5.238c14.399,0,28.713,4.262,43.661,16.466
	c16.35,13.344,33.776,35.316,55.517,71.529l7.795,12.996c18.819,31.35,29.526,47.479,35.792,55.084
	c8.059,9.768,13.703,12.68,21.034,12.68c18.597,0,23.239-17.09,23.239-36.646l28.903-0.906c0,20.442-4.029,35.463-10.886,47.33
	c-6.625,11.477-19.536,22.943-41.255,22.943c-13.502,0-25.464-2.933-38.692-15.41c-10.169-9.578-22.057-26.594-31.202-41.89
	l-27.205-45.442c-13.649-22.806-26.171-39.811-33.418-47.511c-7.795-8.281-17.816-18.281-33.808-18.281
	c-12.943,0-23.935,9.083-33.133,22.975L-0.167,34.107z"/>
<path id="Logo2" d="M60.867,27.705c-12.943,0-23.935,9.083-33.133,22.975c-13.006,19.631-20.97,48.872-20.97,76.952
	c0,11.582,2.542,20.475,5.865,25.855l-27.933,18.396C-22.477,159.951-26,144.297-26,126.459c0-32.436,8.903-66.244,25.833-92.352
	C14.854,10.954,36.531-5.238,61.395-5.238L60.867,27.705z"/>
<path id="Text" d="M341.026,1.133h37.9l64.441,116.583L507.818,1.133h37.078v191.563h-30.917V45.88L457.46,147.547h-29.009
	L371.943,45.88v146.815h-30.917V1.133z M641.774,72.557c-22.173,0-35.527,16.688-38.724,37.353h75.253
	C676.753,88.623,664.475,72.557,641.774,72.557L641.774,72.557z M572.396,121.682c0-43.481,28.102-75.126,69.915-75.126
	c41.129,0,65.687,31.245,65.687,77.447v8.492H603.051c3.724,22.479,18.639,37.627,42.689,37.627
	c19.188,0,31.182-5.855,42.554-16.563l16.423,20.116c-15.475,14.229-35.158,22.437-60.074,22.437
	C599.38,196.111,572.396,163.105,572.396,121.682z M745.487,75.3h-28.46V49.983h28.46V8.116h29.832v41.867h43.237V75.3h-43.237
	v64.166c0,21.91,7.004,29.694,24.219,29.694c7.859,0,12.363-0.676,19.019-1.781v25.041c-8.29,2.342-16.202,3.418-24.768,3.418
	c-32.205,0-48.302-17.596-48.302-52.816V75.3z M944.169,99.92c-5.991-15.126-19.356-26.266-38.998-26.266
	c-25.527,0-41.867,18.112-41.867,47.615c0,28.767,15.043,47.754,40.644,47.754c20.127,0,34.494-11.709,40.222-26.276V99.92z
	 M974,192.695h-29.282v-19.98c-8.186,11.762-23.08,23.396-47.205,23.396c-38.798,0-64.726-32.479-64.726-74.842
	c0-42.763,26.55-74.714,66.371-74.714c19.684,0,35.126,7.869,45.56,21.761V49.983H974V192.695z"/>
</svg>
