<?xml version="1.0" encoding="utf-8"?>
<!-- Generator: Adobe Illustrator 16.0.0, SVG Export Plug-In . SVG Version: 6.00 Build 0)  -->
<!DOCTYPE svg PUBLIC "-//W3C//DTD SVG 1.1//EN" "http://www.w3.org/Graphics/SVG/1.1/DTD/svg11.dtd">
<svg version="1.1" id="svg1936" xmlns:svg="http://www.w3.org/2000/svg"
	 xmlns="http://www.w3.org/2000/svg" xmlns:xlink="http://www.w3.org/1999/xlink" x="0px" y="0px" width="1000px" height="1000px"
	 viewBox="0 0 1000 1000" enable-background="new 0 0 1000 1000" xml:space="preserve">
<path id="path8" d="M620.597,585.141c-58.217,42.91-142.595,65.805-215.244,65.805c-101.866,0-193.571-37.678-262.949-100.34
	c-5.451-4.928-0.567-11.645,5.974-7.806c74.874,43.563,167.451,69.771,263.081,69.771c64.494,0,135.443-13.342,200.677-41.034
	C621.991,567.35,630.233,577.99,620.597,585.141"/>
<path id="path10" d="M644.797,557.451c-7.413-9.506-49.188-4.491-67.938-2.268c-5.714,0.698-6.587-4.273-1.439-7.85
	c33.272-23.418,87.868-16.657,94.233-8.809c6.366,7.893-1.656,62.619-32.922,88.74c-4.798,4.012-9.375,1.873-7.239-3.445
	C636.512,606.291,652.255,567,644.797,557.451"/>
<path id="path12" fill="#221F1F" d="M578.165,382.021v-22.763c0-3.445,2.617-5.757,5.757-5.757h101.909
	c3.271,0,5.887,2.355,5.887,5.757v19.492c-0.043,3.271-2.791,7.544-7.674,14.303l-52.809,75.397
	c19.624-0.479,40.337,2.442,58.129,12.472c4.012,2.268,5.102,5.581,5.406,8.852v24.291c0,3.313-3.662,7.193-7.501,5.188
	c-31.354-16.438-72.997-18.229-107.665,0.177c-3.531,1.916-7.238-1.921-7.238-5.234v-23.069c0-3.707,0.044-10.03,3.751-15.655
	l61.181-87.737h-53.244C580.782,387.734,578.165,385.423,578.165,382.021"/>
<path id="path14" fill="#221F1F" d="M206.418,524.049h-31.004c-2.965-0.218-5.321-2.441-5.538-5.275V359.651
	c0-3.183,2.66-5.712,5.974-5.712h28.911c3.009,0.13,5.407,2.442,5.626,5.32v20.8h0.567c7.543-20.103,21.715-29.479,40.815-29.479
	c19.405,0,31.528,9.376,40.25,29.479c7.5-20.103,24.551-29.479,42.822-29.479c12.995,0,27.21,5.364,35.888,17.399
	c9.812,13.388,7.806,32.836,7.806,49.887l-0.043,100.427c0,3.184-2.661,5.756-5.974,5.756h-30.961
	c-3.096-0.218-5.581-2.705-5.581-5.756v-84.336c0-6.715,0.611-23.46-0.873-29.827c-2.312-10.684-9.245-13.692-18.227-13.692
	c-7.5,0-15.35,5.015-18.533,13.039c-3.184,8.023-2.878,21.454-2.878,30.48v84.336c0,3.184-2.66,5.756-5.975,5.756h-30.96
	c-3.14-0.218-5.582-2.705-5.582-5.756l-0.044-84.336c0-17.747,2.922-43.868-19.1-43.868c-22.282,0-21.411,25.466-21.411,43.868
	v84.336C212.392,521.477,209.732,524.049,206.418,524.049"/>
<path id="path16" fill="#221F1F" d="M779.456,350.581c46.004,0,70.903,39.508,70.903,89.744c0,48.534-27.516,87.039-70.903,87.039
	c-45.178,0-69.771-39.508-69.771-88.74C709.685,389.085,734.584,350.581,779.456,350.581 M779.717,383.068
	c-22.849,0-24.288,31.135-24.288,50.54c0,19.449-0.306,60.962,24.027,60.962c24.025,0,25.16-33.49,25.16-53.898
	c0-13.431-0.566-29.478-4.623-42.211C796.506,387.385,789.572,383.068,779.717,383.068"/>
<path id="path18" fill="#221F1F" d="M910.015,524.049h-30.874c-3.096-0.218-5.583-2.705-5.583-5.756l-0.042-159.165
	c0.263-2.922,2.835-5.189,5.976-5.189h28.734c2.705,0.13,4.93,1.963,5.539,4.448v24.333h0.567
	c8.677-21.759,20.843-32.138,42.253-32.138c13.911,0,27.473,5.015,36.195,18.751c8.109,12.733,8.109,34.144,8.109,49.537v100.165
	c-0.35,2.79-2.922,5.015-5.975,5.015h-31.091c-2.835-0.218-5.189-2.312-5.495-5.015v-86.43c0-17.399,2.006-42.865-19.404-42.865
	c-7.545,0-14.478,5.058-17.923,12.733c-4.361,9.724-4.927,19.405-4.927,30.132v85.688
	C916.032,521.477,913.328,524.049,910.015,524.049"/>
<g id="use28" transform="translate(244.36719)">
	<path id="path30" fill="#221F1F" d="M249.926,447.121v-6.716c-22.413,0-46.092,4.797-46.092,31.223
		c0,13.387,6.933,22.457,18.838,22.457c8.721,0,16.527-5.363,21.454-14.084C250.231,469.274,249.926,459.201,249.926,447.121
		 M281.193,522.69c-2.051,1.832-5.018,1.964-7.326,0.742c-10.292-8.547-12.124-12.517-17.793-20.67
		c-17.006,17.355-29.041,22.547-51.106,22.547c-26.077,0-46.397-16.094-46.397-48.318c0-25.16,13.648-42.298,33.054-50.67
		c16.833-7.414,40.336-8.722,58.302-10.771v-4.012c0-7.37,0.567-16.091-3.75-22.458c-3.794-5.712-11.033-8.067-17.398-8.067
		c-11.817,0-22.37,6.061-24.943,18.62c-0.524,2.792-2.573,5.538-5.364,5.668l-30.089-3.227c-2.529-0.567-5.32-2.616-4.622-6.497
		c6.935-36.456,39.856-47.444,69.334-47.444c15.088,0,34.798,4.012,46.704,15.437c15.087,14.085,13.649,32.88,13.649,53.331v48.316
		c0,14.521,6.017,20.889,11.686,28.736c2.006,2.792,2.442,6.147-0.087,8.242c-6.323,5.276-17.573,15.089-23.767,20.582
		L281.193,522.69"/>
</g>
<path id="path30_1_" fill="#221F1F" d="M90.467,448.042v-6.716c-22.414,0-46.092,4.797-46.092,31.223
	c0,13.387,6.934,22.457,18.838,22.457c8.721,0,16.527-5.363,21.454-14.084C90.772,470.195,90.467,460.122,90.467,448.042
	 M121.734,523.611c-2.05,1.832-5.015,1.964-7.327,0.742c-10.291-8.547-12.122-12.517-17.791-20.67
	c-17.007,17.355-29.042,22.547-51.107,22.547c-26.077,0-46.398-16.094-46.398-48.318c0-25.16,13.649-42.298,33.054-50.67
	c16.832-7.414,40.336-8.722,58.302-10.771v-4.012c0-7.37,0.567-16.091-3.75-22.458c-3.793-5.712-11.032-8.067-17.399-8.067
	c-11.818,0-22.37,6.061-24.943,18.62c-0.523,2.792-2.573,5.538-5.363,5.668l-30.089-3.227c-2.529-0.567-5.32-2.616-4.622-6.497
	c6.933-36.456,39.856-47.444,69.334-47.444c15.088,0,34.798,4.012,46.703,15.437c15.088,14.085,13.649,32.88,13.649,53.331v48.316
	c0,14.521,6.019,20.889,11.687,28.736c2.005,2.792,2.441,6.147-0.087,8.242c-6.323,5.276-17.574,15.089-23.766,20.582
	L121.734,523.611"/>
</svg>
