<?xml version="1.0" encoding="utf-8"?>
<!-- Generator: Adobe Illustrator 16.0.0, SVG Export Plug-In . SVG Version: 6.00 Build 0)  -->
<!DOCTYPE svg PUBLIC "-//W3C//DTD SVG 1.1//EN" "http://www.w3.org/Graphics/SVG/1.1/DTD/svg11.dtd">
<svg version="1.1" id="Layer_1" xmlns:v="https://vecta.io/nano"
	 xmlns="http://www.w3.org/2000/svg" xmlns:xlink="http://www.w3.org/1999/xlink" x="0px" y="0px" width="1000px" height="1000px"
	 viewBox="-100 -404.599 1000 1000" enable-background="new -100 -404.599 1000 1000" xml:space="preserve">
<path d="M134.86,198.803H79.4L62.434,157.88h-92.43l-15.458,40.923H-100L-16.666-7.88h59.701L134.86,198.803z M13.943,41.508
	l-30.303,80.306h63.641L13.943,41.508z M336.319-7.88h44.85v206.683h-51.523v-129.1l-55.76,64.846h-7.876l-55.756-64.846v129.098
	H158.73V-7.88h44.85l66.365,76.67L336.319-7.88z M511.719-7.88c75.455,0,114.238,46.967,114.238,103.637
	c0,59.396-37.572,103.046-120,103.046h-85.461V-7.88H511.719z M472.017,160.922h33.632c51.821,0,67.279-35.161,67.279-65.472
	c0-35.459-19.095-65.453-67.885-65.453h-33.027L472.017,160.922L472.017,160.922z M728.462,41.126L663.496-23.85H900v236.513
	l-64.965-64.969V41.126H728.462z M728.385,54.146L661.5,121.029v93.623h93.611l66.881-66.882h-93.607V54.146z"/>
</svg>
