<?xml version="1.0" encoding="utf-8"?>
<!-- Generator: Adobe Illustrator 16.0.0, SVG Export Plug-In . SVG Version: 6.00 Build 0)  -->
<!DOCTYPE svg PUBLIC "-//W3C//DTD SVG 1.1//EN" "http://www.w3.org/Graphics/SVG/1.1/DTD/svg11.dtd">
<svg version="1.1" id="Layer_1" xmlns="http://www.w3.org/2000/svg" xmlns:xlink="http://www.w3.org/1999/xlink" x="0px" y="0px"
	 width="1000px" height="1000px" viewBox="-364 -454 1000 1000" enable-background="new -364 -454 1000 1000" xml:space="preserve">
<path d="M64.075,54.623c0,47.273-36.981,82.104-82.364,82.104c-45.382,0-82.364-34.83-82.364-82.104
	c0-47.604,36.981-82.104,82.364-82.104C27.094-27.481,64.075,7.019,64.075,54.623z M28.019,54.623
	c0-29.539-21.431-49.75-46.308-49.75c-24.876,0-46.308,20.211-46.308,49.75c0,29.245,21.431,49.753,46.308,49.753
	C6.588,104.376,28.019,83.832,28.019,54.623z"/>
<path d="M241.759,54.623c0,47.273-36.981,82.104-82.364,82.104c-45.382,0-82.363-34.83-82.363-82.104
	c0-47.566,36.981-82.104,82.363-82.104C204.777-27.481,241.759,7.019,241.759,54.623z M205.703,54.623
	c0-29.539-21.43-49.75-46.309-49.75c-24.876,0-46.308,20.211-46.308,49.75c0,29.245,21.432,49.753,46.308,49.753
	C184.273,104.376,205.703,83.832,205.703,54.623z"/>
<path d="M412.039-22.521v147.405c0,60.634-35.759,85.4-78.033,85.4c-39.793,0-63.742-26.617-72.776-48.383l31.393-13.068
	c5.589,13.364,19.286,29.133,41.348,29.133c27.063,0,43.828-16.694,43.828-48.122v-11.807h-1.258
	c-8.068,9.955-23.62,18.653-43.235,18.653c-41.052,0-78.662-35.76-78.662-81.771c0-46.344,37.61-82.4,78.662-82.4
	c19.579,0,35.131,8.7,43.235,18.36h1.258v-13.363h34.241V-22.521z M380.351,54.919c0-28.909-19.282-50.046-43.828-50.046
	c-24.875,0-45.716,21.137-45.716,50.046c0,28.616,20.841,49.457,45.716,49.457C361.068,104.376,380.351,83.535,380.351,54.919z"/>
<path d="M468.491-108.919v240.614h-35.167v-240.614H468.491z"/>
<path d="M605.528,81.648l27.987,18.653c-9.03,13.364-30.8,36.389-68.41,36.389c-46.641,0-81.475-36.056-81.475-82.104
	c0-48.825,35.13-82.103,77.44-82.103c42.606,0,63.45,33.907,70.261,52.231l3.738,9.329L525.312,79.501
	c8.405,16.47,21.473,24.875,39.794,24.875C583.47,104.376,596.201,95.342,605.528,81.648L605.528,81.648z M519.391,52.106
	l73.369-30.465c-4.034-10.254-16.177-17.399-30.467-17.399C543.972,4.242,518.465,20.419,519.391,52.106z"/>
<path d="M-233.768,33.265V-1.569h117.382c1.148,6.072,1.741,13.252,1.741,21.027c0,26.134-7.145,58.452-30.171,81.473
	c-22.395,23.324-51.009,35.76-88.916,35.76c-70.259,0-129.339-57.226-129.339-127.486c0-70.259,59.08-127.488,129.339-127.488
	c38.868,0,66.558,15.25,87.362,35.129l-24.581,24.58c-14.917-13.994-35.128-24.877-62.817-24.877
	c-51.306,0-91.434,41.349-91.434,92.656c0,51.304,40.128,92.651,91.434,92.651c33.278,0,52.231-13.36,64.374-25.503
	c9.845-9.844,16.323-23.913,18.877-43.125L-233.768,33.265z"/>
</svg>
