<?xml version="1.0" encoding="utf-8"?>
<!-- Generator: Adobe Illustrator 16.0.0, SVG Export Plug-In . SVG Version: 6.00 Build 0)  -->
<!DOCTYPE svg PUBLIC "-//W3C//DTD SVG 1.1//EN" "http://www.w3.org/Graphics/SVG/1.1/DTD/svg11.dtd">
<svg version="1.1" id="Layer_1" xmlns="http://www.w3.org/2000/svg" xmlns:xlink="http://www.w3.org/1999/xlink" x="0px" y="0px"
	 width="1000px" height="1000px" viewBox="-93 0 1000 1000" enable-background="new -93 0 1000 1000" xml:space="preserve">
<path d="M788.1,340.9c-5.8,4.5-108.199,62.2-108.199,190.5C679.9,679.8,810.2,732.3,814.1,733.6c-0.6,3.2-20.699,71.9-68.699,141.9
	c-42.801,61.6-87.5,123.1-155.5,123.1s-85.5-39.5-164-39.5c-76.5,0-103.7,40.801-165.9,40.801s-105.6-57-155.5-127
	C46.7,790.7,0,663,0,541.8c0-194.4,126.4-297.5,250.8-297.5c66.101,0,121.2,43.4,162.7,43.4c39.5,0,101.1-46,176.3-46
	C618.3,241.7,720.7,244.3,788.1,340.9L788.1,340.9z M554.1,159.4C585.2,122.5,607.2,71.3,607.2,20.1c0-7.1-0.601-14.3-1.9-20.1
	c-50.6,1.9-110.8,33.7-147.1,75.8c-28.5,32.4-55.101,83.6-55.101,135.5c0,7.8,1.301,15.6,1.9,18.1c3.2,0.6,8.4,1.3,13.6,1.3
	C464,230.7,521.1,200.3,554.1,159.4L554.1,159.4z"/>
</svg>
