<?xml version="1.0" encoding="utf-8"?>
<!-- Generator: Adobe Illustrator 16.0.0, SVG Export Plug-In . SVG Version: 6.00 Build 0)  -->
<!DOCTYPE svg PUBLIC "-//W3C//DTD SVG 1.1//EN" "http://www.w3.org/Graphics/SVG/1.1/DTD/svg11.dtd">
<svg version="1.1" id="Layer_1" xmlns="http://www.w3.org/2000/svg" xmlns:xlink="http://www.w3.org/1999/xlink" x="0px" y="0px"
	 width="1000px" height="1000px" viewBox="-326.795 -355.662 1000 1000" enable-background="new -326.795 -355.662 1000 1000"
	 xml:space="preserve">
<g>
	<path d="M333.396,275.894l-36.697,36.951l-35.684-36.699l-19.236-57.101l-54.667-18.858l-0.104-35.555l-35.557,0.105
		l-18.751,90.225l19.237,58.369L68.253,350.41L42.73,313.691l17.65-36.91l-0.127-39.363l-54.602,0.189l-72.127,76.424
		l-54.646-17.588l-0.275-76.191l-95.28-14.94l-68.444,37.06l-40.699-17.654l-0.254-77.439l36.762-17.924l145.8-72.848l21.629,17.715
		l54.456-54.773l-0.127-35.578L4.572-88.743l36.593-77.588l54.286-90.329l90.117-18.073l36.826-0.126l0.103,35.554l72.637,72.149
		l0.23,77.459L408.762,17.881l109.44,73.272l54.645,17.606l19.24,54.54l72.509,35.345l-36.723,36.909l-35.534,0.131l-0.127-36.808
		l-54.664-17.63l-91.729-89.842l-72.506-36.591l-77.82-108.932L259.83-89.591l17.589-58.455l-54.796-54.433l-36.719,35.661
		l0.256,77.481l-35.43,35.684l72.612,72.126l-36.696,36.932l73.881,72.149l0.13,36.824l35.788,72.254l36.825-0.105l40.509-36.953
		l-19.092-17.713l-21.779-54.542l40.639-0.125l35.786,72.274l36.957,36.701L333.396,275.894z"/>
	<path d="M-324.721,562.498l-0.635-193.018l40.572-17.904l0.698,210.814L-324.721,562.498z"/>
	<path d="M-116.466,561.82c-40.635,0.127-40.635,0.127-40.635,0.127c-0.296-83.832-0.296-83.832-0.296-83.832
		c-0.084-25.375-10.242-32.973-25.48-32.93c-17.779,0.063-25.376,7.723-25.292,33.1c0.275,83.811,0.275,83.811,0.275,83.811
		c-39.345,0.125-39.345,0.125-39.345,0.125c-0.528-153.627-0.528-153.627-0.528-153.627c39.365-0.129,39.365-0.129,39.365-0.129
		c0.042,11.43,0.042,11.43,0.042,11.43c7.578-7.641,17.716-14.033,36.763-14.096c35.555-0.127,54.688,25.205,54.835,68.379"/>
	<path d="M46.836,407.621C-7.258,561.478-7.258,561.478-7.258,561.478c-40.635,0.131-40.635,0.131-40.635,0.131
		c-55.112-153.482-55.112-153.482-55.112-153.482c44.466-0.15,44.466-0.15,44.466-0.15c21.8,69.76,21.8,69.76,21.8,69.76
		c3.873,13.967,6.456,29.203,10.264,35.533c-0.022-6.35,3.767-21.607,7.491-35.598c21.376-69.906,21.376-69.906,21.376-69.906"/>
	<path d="M156.232,465.693c-3.851-13.969-11.513-25.355-29.29-25.314c-19.047,0.064-29.164,11.516-32.931,25.525 M131.154,563.533
		c-44.465,0.148-77.565-31.492-77.715-79.746c-0.168-47.004,32.741-78.857,73.376-78.984c43.175-0.127,68.697,35.344,68.846,78.52
		c0.023,7.6,0.023,7.6,0.041,15.24c-101.585,0.336-101.585,0.336-101.585,0.336c3.872,17.756,21.672,25.336,36.909,25.271
		c6.349-0.023,21.588-3.896,29.165-11.514c28.02,22.771,28.02,22.771,28.02,22.771C174.326,557.058,145.145,563.494,131.154,563.533
		L131.154,563.533z"/>
	<path d="M283.427,527.492c13.97-0.043,21.589-3.871,21.568-11.492c-0.045-10.141-14.01-13.926-21.631-13.906
		c-29.226-7.514-66.074-11.217-66.201-50.559c-0.087-29.207,29.06-47.111,62.078-47.197c21.604-0.063,43.192,6.223,58.496,17.609
		c-21.502,29.27-21.502,29.27-21.502,29.27c-11.454-7.578-25.441-11.344-36.869-11.301c-17.778,0.041-21.588,3.871-21.566,11.492
		c0.019,6.35,21.606,10.072,33.079,13.859c29.229,7.516,54.646,15.047,54.752,46.797c0.125,33.014-32.85,50.877-65.865,51.004
		c-25.396,0.084-47.003-9.988-66.093-21.355c22.77-25.482,22.77-25.482,22.77-25.482
		C250.391,523.789,265.65,527.554,283.427,527.492"/>
	<path d="M443.155,443.154c-21.587,0.064-39.305,17.904-39.242,39.49c0.065,22.859,17.93,40.572,39.494,40.508
		c15.238-0.041,25.355-7.703,32.951-17.885c33.102,25.271,33.102,25.271,33.102,25.271c-15.174,17.842-40.529,31.873-65.927,31.959
		c-43.172,0.127-80.105-35.283-80.252-79.727c-0.147-43.174,36.573-78.859,79.744-79.004c25.401-0.088,50.837,13.799,66.143,31.533
		c-32.955,25.504-32.955,25.504-32.955,25.504C468.571,450.709,458.372,443.111,443.155,443.154"/>
	<path d="M636.296,481.904c-0.063-21.609-15.365-39.322-36.953-39.26c-25.396,0.086-39.279,17.904-39.236,39.514
		c0.087,22.857,14.096,40.572,39.492,40.508c21.608-0.084,36.784-17.904,36.699-40.762 M675.663,481.756
		c0.147,44.445-31.473,80.086-75.938,80.232c-43.175,0.15-80.105-35.279-80.255-79.725c-0.147-43.172,36.572-78.875,79.747-79.006
		C643.663,403.131,675.513,438.58,675.663,481.756z"/>
</g>
</svg>
